<svg width="295.09mm" height="79.375mm" version="1.1" viewBox="0 0 295.09 79.375" xmlns="http://www.w3.org/2000/svg" xmlns:cc="http://creativecommons.org/ns#" xmlns:dc="http://purl.org/dc/elements/1.1/" xmlns:osb="http://www.openswatchbook.org/uri/2009/osb" xmlns:rdf="http://www.w3.org/1999/02/22-rdf-syntax-ns#"><metadata><rdf:RDF><cc:Work rdf:about=""><dc:format>image/svg+xml</dc:format><dc:type rdf:resource="http://purl.org/dc/dcmitype/StillImage"/><dc:title/></cc:Work></rdf:RDF></metadata><g transform="matrix(.50001 0 0 .50001 37.276 419.61)" stroke="#d68bff" stroke-width="1.0001"><path d="m-293.74-979.92c5.9316 0.35473 11.867 0.62628 17.809 0.69672l0.93414-0.67748c-5.899-0.0306-11.796-0.27406-17.674-0.78798l-1.0693 0.76874z"/><path d="m-285.74-978.28c0.0351 3.6688 0.1062 7.3368 0.17558 11.005l1.085-0.55584c-0.0924-3.6844-0.16904-7.3698-0.0711-11.055l-1.1894 0.60599z"/><path d="m-271.85-979.71c-0.08 3.4932-0.86314 6.9382-1.6344 10.334 0.70291-1.4051-0.70511 1.7774-0.17248 1.6406 1.3031-0.33468 1.885-0.9908 2.8467-1.7463 1.0349-0.81298 1.4354-1.0908 2.4942-1.8633 0.012 0.0481-9e-3 0.12795 0.0375 0.14415 0.32084 0.11115 0.71005 0.0309 0.99597 0.21403 0.79568 0.50976 1.4677 1.921 1.8455 2.6508 0.64331 1.2426 1.1434 2.4045 1.7148 3.6789 0.64164 1.182 1.3652 3.1077 3.0005 3.2587 0.45418 0.042 0.93939-0.0647 1.338-0.2862 2.4092-1.3391 2.2023-1.5215 3.406-3.5745 0.74156-1.8228 1.5173-3.7873 1.3459-5.8069-0.0675-0.79554-0.33253-1.7542-1.0746-2.2197-0.28027-0.17582-0.64528-0.14625-0.96793-0.21932-2.1707 0.64491-3.7714 2.2196-4.12 4.4822-0.19263 1.25 0.0228 1.747 0.27417 2.9497 0.1981 0.42426 0.35046 0.87306 0.5943 1.2728 0.70654 1.1583 1.8126 2.113 3.1396 2.4725 1.3967 0.37839 2.512 0.2427 3.9616 0.22117 0.81183-0.0669 1.6236-0.1338 2.4354-0.20065l0.96078-0.71013c-0.80608 0.066-1.6122 0.13215-2.4183 0.19821-1.4068 0.0189-2.5262 0.14625-3.8855-0.21071-1.3042-0.34275-2.3931-1.2588-3.0915-2.3942-0.24014-0.39036-0.38949-0.82974-0.58423-1.2446-0.0967-0.47186-0.24947-0.93564-0.29018-1.4156-0.0895-1.0545 0.041-1.8945 0.48367-2.8568 0.19307-0.41965 0.57617-0.74085 0.73584-1.1743 0.0371-0.10035-0.29634-0.16736-0.21571-0.23775 0.26157-0.22845 0.63847-0.27353 0.95772-0.41028 0.30952 0.048 0.65556-9e-3 0.9286 0.144 0.7382 0.41508 0.99732 1.3566 1.066 2.1129 0.18198 2.0013-0.59244 3.9446-1.3487 5.7408-0.36806 0.59766-0.76334 1.1794-1.1043 1.7929-0.0888 0.15989-0.0226 0.42527-0.18001 0.51833-2.2076 1.305-3.492-1.2384-4.2803-2.8042-0.52256-1.157-1.1418-2.5602-1.7123-3.6913-0.40203-0.79707-1.5198-3.4-2.9085-3.0432-0.79788 0.20497-1.4717 0.74073-2.2076 1.1111-1.4053 1.0297-1.1069 0.79899-2.5058 1.8733-0.3563 0.2736-0.78957 0.4708-1.0654 0.82543-0.12299 0.15806 0.44055-0.0365 0.57031-0.18894 0.33425-0.39289-2.087-1.3584 0.1182-1.5429 0.73874-3.4317 1.5093-6.8901 1.7098-10.402l-1.1934 0.60804z"/><path d="m-275.04-957.44c0.17888-0.1365 0.3591-0.27088 0.53669-0.40892 0.0711-0.0552-0.30365 0.18602-0.21726 0.16058 0.44112-0.12975 0.85204-0.35145 1.2943-0.47754 1.2518-0.35688 2.4058-0.52356 3.7164-0.52536 0.72309-1e-3 1.443 0.0963 2.1645 0.1446 0.7128 0.18811 1.4487 0.30384 2.1384 0.56423 2.2164 0.83688 3.9266 2.3632 5.1388 4.3887 1.1665 1.9494 1.1745 2.5917 1.7559 4.7678 0.0801 0.84066 0.23884 1.6775 0.24042 2.522 6e-3 3.3758-1.1629 6.129-4.1767 7.845-0.43363 0.2469-0.94789 0.31227-1.4219 0.46837-0.9096 0.20325-1.8057 0.48158-2.7289 0.60972-2.3507 0.32631-5.1398 0.25206-7.1619-1.1913-1.7729-1.2655-1.8896-2.2-2.8004-4.1306-0.1662-0.97183-0.45213-1.9307-0.49857-2.9155-0.0934-1.9834 0.32955-4.2602 1.0238-6.1111 0.8554-2.2807 1.5748-3.0423 2.9442-4.9724l-1.0744 0.4669c-1.3552 1.9462-2.061 2.7072-2.9051 4.9995-0.68903 1.8709-1.1054 4.1604-1.011 6.1599 0.047 0.99665 0.33209 1.9677 0.49809 2.9515 0.9107 1.9661 1.0243 2.9214 2.8192 4.2162 2.0386 1.4706 4.8561 1.5483 7.2345 1.2348 0.92445-0.12181 1.8235-0.39067 2.7353-0.586 1.9355-0.9193 3.8728-1.5422 5.3801-3.12 1.6406-1.7174 2.2144-4.1711 2.1964-6.4744-6e-3 -0.8501-0.16817-1.6918-0.25225-2.5378-0.5842-2.1791-0.60445-2.8567-1.7661-4.8134-1.2178-2.0514-2.9392-3.6017-5.1727-4.4631-0.69267-0.26715-1.4326-0.39006-2.1489-0.58506-0.72209-0.0548-1.4421-0.15718-2.1662-0.16413-2.7283-0.0261-5.4338 0.71512-7.5474 2.4971l1.2327-0.52024z"/><path d="m-250.88-959.73c-0.20464 4.8901-1.6935 9.6332-3.1049 14.286-0.44067 1.3004-0.97133 2.9451-1.5003 4.2434-0.16586 0.40693-0.32689 0.81979-0.55235 1.197-0.057 0.0954-0.35463 0.26567-0.2754 0.18781 1.8841-1.852 1.0874-0.56798 2.0541-2.7501 0.91332-1.6768 1.9229-3.3305 3.2198-4.7445 0.42035-0.45827 1.5804-1.5833 2.2614-1.8147 0.12555-0.0427-0.0794 0.25311-0.1191 0.37971 0.2765 0.0649 0.58023 0.0586 0.82952 0.19485 1.3698 0.74785 1.3645 2.8586 0.94755 4.1242-0.14234 0.43215-0.3987 0.81802-0.59808 1.227-0.9627 1.0362-1.0312 1.2841-2.3463 1.9558-0.13215 0.0677-0.30051-1e-3 -0.44434 0.0363-1.2242 0.31799-1.4767 0.56954-2.6876 0.72122-0.33618 0.0421-0.67752 0.0105-1.0163 0.0165-1.0019-0.34136-0.55679-0.10515-1.3515-0.67746l-1.1078 0.70306c0.8331 0.6099 0.36676 0.35472 1.4157 0.73443 0.34839-2e-3 0.6992 0.0349 1.0452-6e-3 1.8843-0.22337 3.6824-1.0817 5.3119-1.9837 0.47233-0.26144 0.93273-0.55515 1.3406-0.90884 0.37633-0.3264 0.66271-0.74386 0.99406-1.1158 0.19556-0.42001 0.44835-0.81784 0.58668-1.26 0.42102-1.3456 0.37886-3.4875-1.018-4.305-0.26104-0.15274-0.58317-0.16068-0.87472-0.24106-1.402 0.58168-2.0896 0.7027-3.164 1.5943-1.8991 1.5759-3.1587 3.7814-4.363 5.8904-0.5856 1.2787-1.3595 1.6864 0.32656 1.7256 0.0952 1e-3 0.14745-0.12809 0.18988-0.21352 0.19178-0.38486 0.35341-0.78448 0.50762-1.1859 0.49916-1.2994 1.0106-2.9245 1.4358-4.2206 1.4061-4.7052 2.8865-9.473 3.2447-14.395l-1.1874 0.60497z"/><path d="m-232.79-947.64c-1.1166-0.70486-2.4467-1.2877-3.7976-1.2332-0.31526 0.012-0.6228 0.10125-0.93416 0.15183-0.64765 0.37068-1.3636 0.64179-1.9429 1.112-0.56392 0.45768-0.81529 1.6187-0.89859 2.2414-0.19849 1.4834-0.025 3.0264 0.0861 4.5084 0.0342 0.46452 0.32115 1.4606-0.29064 1.8429-0.1526 0.0954 0.28321-0.43174 0.1287-0.5244-0.50444-0.30295-1.1531-0.24543-1.7129-0.42681-1.57-0.50886-2.7144-1.0859-4.21-1.7714l-1.0044 0.66565c1.4692 0.67628 2.6647 1.2673 4.1918 1.808 0.55646 0.19701 1.1106 0.54376 1.6992 0.49873 0.96768-0.0741 2.2885-0.39373 2.4212-1.52 0.0453-0.38412-0.0669-0.77062-0.1002-1.1559-0.13815-1.729-0.4444-4.1158 0.27927-5.7404 0.1473-0.33084 0.47978-0.5583 0.61973-0.89232 0.0426-0.10185-0.20159 0.09-0.3024 0.13515 0.30594-0.0596 0.60685-0.15841 0.91791-0.17884 1.3184-0.0867 2.6433 0.48753 3.7168 1.1996l1.1329-0.72024z"/><path d="m-235.57-939.72c1.9415-0.87469 3.8649-1.9046 5.4364-3.3621 0.31098-0.28842 0.59539-0.6042 0.8931-0.90625 1.1802-1.4375 2.56-3.2406 2.156-5.2389-0.0606-0.29973-0.21744-0.57163-0.32616-0.85743-0.22028-0.17506-0.39095-0.44564-0.66086-0.52509-0.76333-0.22465-1.6999 0.25199-2.2887 0.6144-0.8163 0.50249-1.6258 1.0274-2.3579 1.6462-0.97686 0.82557-1.4131 1.7673-2.0508 2.8403-0.7822 1.861-1.2562 3.9865-0.14475 5.8346 0.56889 0.94606 0.93782 1.0644 1.8134 1.668 2.1646 0.82328 4.5099 0.76788 6.789 0.75381l1.0068-0.73299c-2.2544 0.0312-4.5711 0.0864-6.7184-0.70928-0.85848-0.5751-1.2227-0.68562-1.7812-1.6021-1.1019-1.8083-0.61029-3.9 0.16929-5.7144 1.6737-2.7463 0.081-0.33787 2.0766-2.8028 0.0928-0.11475 0.0865-0.30633 0.20739-0.39115 0.46885-0.32907 1.4993-0.8606 2.1752-0.7073 0.25337 0.0575 0.41937 0.30669 0.62904 0.46005 0.1044 0.2726 0.25643 0.53151 0.31329 0.81789 0.38997 1.9638-1.024 3.7354-2.1843 5.1343-1.3997 1.3932-2.4847 2.3404-4.0949 2.9527l-1.0572 0.82762z"/><path d="m-218.18-949.88c-1.0134-0.63578-2.0974-1.2833-3.3518-1.0755-1.1624 0.19263-2.0865 1.015-3.0349 1.6209-0.21766 0.33181-0.49521 0.6313-0.65299 0.99545-0.96353 2.2233-0.14114 5.8493 0.27976 8.1617 0.0378 0.98112 0.72285 2.2568 0.49973 3.2471-0.0434 0.19209-0.5 0.47943-0.30491 0.50592 0.22749 0.0309 0.62769-0.29415 0.49347-0.48033-0.17913-0.24846-0.60888-0.0679-0.91333-0.102-1.4895-0.5354-0.74507-0.21489-2.227-0.9764l-1.0651 0.69825c1.4856 0.78539 0.73976 0.44759 2.2315 1.0262 0.31073 0.053 0.62736 0.23942 0.93219 0.15918 0.70427-0.18543 1.8664-0.52 2.0145-1.4262 0.17278-1.0578-0.50072-2.2021-0.55724-3.2399-0.4333-2.2941-1.2408-5.89-0.20976-8.0859 0.16581-0.35316 0.44991-0.63745 0.67487-0.95617-0.43458-0.0312-0.93985-0.0385 0.79515-0.38688 0.99424-0.19959 1.8326 0.16642 2.6691 0.64863 0.20585 0.11865 0.40083 0.25519 0.60126 0.38281l1.1254-0.71701z"/><path d="m-211.04-950.91c-0.78151-0.43601-1.6017-0.93624-2.4929-1.1151-0.25586-0.0513-0.53619-0.1443-0.78108-0.0543-0.65315 0.24065-1.2168 0.67634-1.8252 1.0145-0.17911 0.30691-0.41422 0.58734-0.53737 0.92065-0.82649 2.2368-0.25672 5.9116 0.012 8.2694 0.078 0.53306 0.45435 2.6446-0.71428 2.6662-0.15739 3e-3 0.19096-0.4095 0.0456-0.47002-0.428-0.17829-0.92534-0.0595-1.388-0.0892l-1.0301 0.73635c1.8292 0.16437 1.5082 0.33178 3.583-0.66362 0.25297-0.12135 0.49742-0.31419 0.62444-0.56436 0.295-0.58083 0.0542-1.6604-0.0105-2.1978-0.28285-2.3162-0.8545-6.0291 0.0568-8.2073 0.13409-0.321 0.38541-0.57947 0.57813-0.86916-0.15262 0.0728-0.59022 0.1131-0.45788 0.21834 0.19903 0.15835 0.51237-0.0208 0.7627 0.0243 0.85702 0.15421 1.7075 0.6706 2.4471 1.1075l1.1268-0.7262z"/><path d="m-209.98-937.51c1.874-0.83552 3.5667-2.0879 4.8564-3.6888 0.37535-0.46594 0.70458-0.96715 1.0569-1.4507 1.078-1.6823 1.9913-3.4652 2.794-5.2935 0.32545-0.74125 0.82928-1.8647 0.91434-2.7187 0.0316-0.31821-0.0577-0.63699-0.0866-0.95544-0.17015-0.20649-0.28213-0.47999-0.51048-0.6194-0.60673-0.37054-1.4398-0.2412-2.0648-0.0855-1.8059 0.44977-3.2086 1.6306-4.6883 2.6904-0.29294 0.37466-0.62387 0.72252-0.87885 1.124-1.1474 1.8068-1.3438 3.9566-1.0157 6.0328 0.0733 0.46437 0.21189 0.91606 0.31787 1.3741 0.38078 1.0259 0.85184 2.1921 1.9001 2.7311 1.0901 0.56052 2.7468 0.69741 3.8592 0.81171 1.1187 0.1149 2.2424 0.17382 3.3636 0.26076 1.2691 0.0669 2.5382 0.13379 3.8074 0.20088l0.89445-0.64234c-1.2602-0.0721-2.5203-0.14415-3.7804-0.21645-1.1027-0.0972-2.2083-0.16641-3.3082-0.29156-1.0137-0.11535-2.7176-0.29092-3.743-0.80827-1.03-0.51969-1.5011-1.6412-1.8789-2.6462-0.1065-0.45123-0.24656-0.89584-0.31941-1.3537-0.32703-2.0564-0.0965-4.1794 1.0655-5.9499 0.25874-0.39433 0.59246-0.73398 0.8887-1.1009 0.015-0.72036-0.0723-0.36639 1.2234-0.97581 0.84243-0.39625 2.2935-0.9909 3.2356-0.47983 0.21287 0.1155 0.32107 0.36267 0.48159 0.54399 0.0288 0.30249 0.1158 0.60507 0.0867 0.90753-0.0807 0.83725-0.56731 1.951-0.88311 2.6772-0.79531 1.8289-1.7171 3.6052-2.8115 5.2741-0.89458 1.1964-1.0741 1.5461-2.1046 2.542-0.29073 0.28096-0.60724 0.53449-0.92376 0.786-0.24868 0.19758-0.56419 0.31894-0.77064 0.56028-0.13049 0.15252 0.36176-0.17567 0.53223-0.2816 0.14055-0.0874-0.29509 0.1506-0.44263 0.22589l-1.0671 0.81601z"/><path d="m-186.14-958.48c-1.0429 4.0226-1.8379 8.1037-2.6666 12.174-0.0688 0.33469-0.54564 2.7674-0.73368 3.3338-0.0603 0.18162-0.41347 0.64103-0.2872 0.4972 0.28666-0.32658 0.75683-0.61582 0.7725-1.0501 0.0159-0.43891-0.45935-0.74878-0.69413-1.12-0.30123-0.47625-0.6092-0.94816-0.9138-1.4222-1.0683-1.528-2.4488-3.3829-4.566-3.1664-1.0621 0.1086-2.0568 0.97534-2.8588 1.4829-0.1236 0.26787-0.35018 0.50935-0.37057 0.80364-0.0623 0.89809 0.62381 1.7111 1.1832 2.2834 1.519 1.5537 3.4818 2.5771 5.3507 3.629l1.0148-0.66084c-1.8578-1.0367-3.7948-2.0484-5.2841-3.6101-0.51099-0.53584-1.1747-1.3348-1.0782-2.1791 0.0318-0.27793 0.25992-0.49541 0.38986-0.7431-0.11535 0.0263-0.45489 0.12435-0.34583 0.0786 0.31171-0.13049 0.6227-0.28492 0.95699-0.33444 1.4469-0.21418 2.583 0.62475 3.4988 1.6493 0.38545 0.43127 0.68833 0.92966 1.0325 1.3945 0.29694 0.47715 0.6024 0.94911 0.89078 1.4315 0.22988 0.38445 0.25436 0.98661 0.66371 1.1684 1.8284 0.81201 1.8687-1.0121 2.0705-2.0131 0.13244-0.65687 0.25485-1.3158 0.38226-1.9736 0.8168-4.1035 1.6217-8.2184 2.7969-12.238l-1.2048 0.58422z"/><path d="m-166.19-954.75c0.32122 3.5682 0.76375 7.1259 1.2088 10.681 0.0754 0.58281 0.29906 2.7635 0.57635 3.4833 0.0906 0.23517 0.2256 0.53127 0.47019 0.59207 0.24903 0.062 0.50576-0.14265 0.70944-0.29877 2.033-1.5577 1.7297-1.3795 2.8717-3.2168 1.1156-1.9122 0.43651-0.9541 1.6155-2.3429 0.1473-0.17335-0.48646 0.28847-0.44974 0.51286 0.0426 0.26026 0.45165 0.2906 0.61505 0.49762 0.55744 0.70603 1.0763 2.0024 1.4237 2.765 0.86501 2.1516 0.57625 1.4082 1.3873 3.5221 0.18403 0.47969 0.32264 0.97904 0.54961 1.44 0.13635 0.27684 0.6639 1.3286 1.2894 1.1055 0.70156-0.25016 1.2758-0.76897 1.9138-1.1535 0.27568-0.4034 0.58346-0.78665 0.82705-1.2102 0.6955-1.2091 1.2373-2.5704 1.7239-3.8688 0.92586-2.4704 1.6519-5.0019 2.3896-7.5326 0.22476-0.77935 0.44953-1.5587 0.6743-2.3381l-1.0797 0.51281c-0.21964 0.77668-0.43929 1.5534-0.65893 2.3301-0.7397 2.5337-1.4711 5.0663-2.4186 7.5326-0.48974 1.275-1.0682 2.6886-1.7874 3.8659-0.25606 0.41915-0.58466 0.78941-0.87698 1.1841 0.12495-0.0223 0.47961 5e-3 0.37493-0.067-1.184-0.81276-0.2599 0.98515-1.2742-0.97233-0.23589-0.45525-0.38005-0.95247-0.56764-1.4297-0.22471-0.57161-0.44472-1.145-0.66925-1.7167-0.23755-0.60495-0.47802-1.2088-0.71704-1.8131-0.32359-0.7392-0.87407-2.145-1.3978-2.846-0.18012-0.24108-0.37274-0.624-0.67284-0.60192-1.8563 0.13665-2.5707 1.7734-3.3511 3.125-0.31452 0.49011-0.62904 0.98021-0.94355 1.4703 0.0759 0.14055 0.29123 0.27564 0.22748 0.42225-0.33496 0.77027-0.86364 0.45321-1.0874-0.0678-0.31615-0.73599-0.54168-2.825-0.62841-3.4417-0.45265-3.5664-0.89503-7.1432-1.0683-10.736 0 0-1.1993 0.61107-1.1993 0.61107z"/><path d="m-145.25-943.02c-0.15221 0.98652-0.25997 1.979-0.37949 2.9698l1.1881-0.58854c0.10621-0.9953 0.21693-1.991 0.39606-2.9764l-1.2047 0.59506z"/><path d="m-144.4-946.55c6e-3 0.52926-8e-3 0.26064 0.0396 0.80586l1.1832-0.61474c-0.039-0.53796-0.031-0.27086-0.0255-0.80123l-1.1973 0.61011z"/><path d="m-137.32-954.21c-0.28398 2.9347-0.61756 5.8642-0.99132 8.7888-0.20378 1.6707-0.49581 3.3283-0.78479 4.9857l1.1349-0.55455c0.27014-1.655 0.5446-3.3097 0.7503-4.9743 0.37657-2.9506 0.71874-5.9055 1.0903-8.8567l-1.1994 0.61111z"/><path d="m-139.97-950.75c0.96973 0.25566 1.9331 0.53071 2.9073 0.76974l1.0742-0.74192c-0.96847-0.23416-1.9273-0.49864-2.8796-0.79222z"/><path d="m-132.42-953.42c0.0485 2.5546 0.0473 5.1099 0.0425 7.6648 0.0399 0.81272-0.0383 1.6264-0.0165 2.4392 6e-3 0.21374-5e-3 0.434 0.0555 0.639 0.0285 0.0961 0.10079 0.20982 0.19997 0.22481 0.14189 0.0214 0.28908-0.0548 0.40985-0.13245 0.54021-0.34755 1.0389-0.75579 1.5583-1.1336 0.42422-0.5626 0.86772-1.1146 1.3751-1.6054 0.13861-0.13394 0.608-0.46396 0.43248-0.38408-1.1293 0.51396-0.75276 0.4748-0.18045 0.62213 1.4968 1.247 2.2861 3.0905 3.2733 4.7268l1.1307-0.65681c-1.0286-1.6494-1.8396-3.4979-3.3093-4.8155-0.18084-0.0663-0.35763-0.25285-0.54256-0.19894-1.5458 0.45061-2.4573 1.6291-3.3956 2.8203 0.23195-0.0708 0.45543-0.24455 0.69585-0.21254 0.13334 0.0177-0.17438 0.22836-0.3037 0.26466-0.0701 0.0197-0.15218-0.061-0.17535-0.13005-0.0657-0.19541-0.0642-0.408-0.0748-0.61389-0.0414-0.80641 0.0267-1.6162-0.0165-2.4224-5e-3 -2.5694-6e-3 -5.1391 0.0426-7.7081l-1.2013 0.61209z"/><path d="m-105.79-954.33c-0.3957 3.4253-0.92313 6.8356-1.5525 10.225 1.6123-1.3525-1.1986 2.621-0.53627 2.2355 1.4302-0.83255 1.1414-1.3299 1.4203-2.6074 0.3249-1.488 0.55414-2.0985 1.0182-3.5812 0.62232-1.6622 1.2255-3.3598 2.1902-4.864 0.48591-0.75761 0.97648-1.4147 1.7932-1.8424 0.0666-0.0349 0.0185 0.1494 0.0277 0.22385 0.42898-1e-3 0.86359-0.0753 1.2868-6e-3 2.0828 0.34209 3.588 2.0963 4.402 3.93 0.24946 0.5621 0.39892 1.1634 0.59844 1.7452 0.1032 0.64258 0.26482 1.2784 0.30974 1.9277 0.18351 2.653-0.49943 5.4902-1.9867 7.7092-0.31678 0.47263-0.72816 0.87447-1.0923 1.3118-0.39627 0.32725-0.77684 0.67456-1.1889 0.9818-0.0378 0.0282-0.0948-4e-5 -0.141 9e-3 -0.40353 0.0842-0.79521 0.2439-1.2065 0.27146-1.4666 0.0983-2.3828-0.53588-3.544-1.2879-1.0265-0.76724-1.7219-1.7966-2.4037-2.8555l-1.1085 0.64783c0.69975 1.0663 1.4118 2.1089 2.444 2.8927 0.89335 0.5927 1.2901 0.96843 2.3444 1.2343 2.2963 0.57901 4.3362-0.90813 5.949-2.3819 0.35706-0.44302 0.76102-0.85199 1.0712-1.329 1.4651-2.2532 2.1345-5.1087 1.9468-7.7786-0.04619-0.65659-0.20882-1.2997-0.31322-1.9496-0.20034-0.58984-0.35026-1.1993-0.60093-1.7695-0.82449-1.8757-2.342-3.6531-4.4498-4.0562-0.42867-0.082-0.87257-0.0234-1.3088-0.0351-1.242 0.58069-2.2666 0.83995-3.1768 1.8165-0.30919 0.33177-0.55787 0.71734-0.79742 1.1024-0.94246 1.515-1.5336 3.214-2.1547 4.8746-0.46047 1.4566-0.71335 2.1503-1.0516 3.6147-0.10064 0.43583-0.48061 0.93635-0.2485 1.3187 0.20135 0.33175 0.79564 0.32355 1.1519 0.16951 0.69183-0.29921-0.62835-2.3048 0.46423-2.2131 0.60749-3.4139 1.1281-6.8424 1.6424-10.271l-1.1989 0.58612z"/><path d="m-91.203-939.45c2.649-1.0161 4.9342-2.6939 7.0144-4.5856 0.30168-0.35919 1.5136-1.182 0.89775-1.8398-0.75201-0.8033-2.1877-0.4938-3.1021-0.40578-0.45876 0.12375-0.93054 0.20665-1.3762 0.37135-0.44126 0.1631-0.86896 0.36801-1.2735 0.60801-1.3 0.77128-2.2364 1.1946-2.9486 2.4535-0.57743 1.0207-0.48978 1.4061-0.59386 2.5436 0.066 0.44059 0.0819 0.89166 0.19804 1.3218 0.43594 1.6156 1.5807 3.0758 2.921 4.0511 0.27452 0.19974 0.5823 0.34925 0.87344 0.52385 1.0301 0.49021 1.6543 0.40565 2.7286 0.22498l1.0371-0.7825c-1.0101 0.19977-1.7033 0.31552-2.6812-0.14534-0.28956-0.16695-0.5956-0.30804-0.86858-0.50083-1.3306-0.93983-2.4667-2.3737-2.8864-3.9645-0.11115-0.42137-0.1224-0.86291-0.18366-1.2943 0.11925-1.1158 0.03645-1.4866 0.62578-2.4783 0.21897-0.36847 0.56871-0.64445 0.8094-0.99916 0.03105-0.0456-0.06645-0.1347-0.0198-0.16442 1.0157-0.64808 1.4753-0.68767 2.6173-1.0106 0.43024-0.0468 0.85802-0.13501 1.2908-0.14026 0.31626-5e-3 1.9699 0.0249 1.789 0.83796-0.0471 0.21159-0.20049 0.38788-0.33729 0.55602-0.21024 0.25851-0.46492 0.47743-0.69741 0.71616-1.4393 1.3024-2.916 2.623-4.7753 3.2809l-1.0586 0.82238z"/><path d="m-79.301-954.97c0.117 4.5472-0.09075 9.096-0.37692 13.633-0.1269 1.8381-0.28494 3.6738-0.44325 5.5095l1.1302-0.56483c0.12735-1.8248 0.25594-3.6494 0.36996-5.4751 0.26831-4.5634 0.46564-9.1321 0.49947-13.704l-1.1794 0.60094z"/><path d="m-82.316-950.06c2.3509 0.9915 4.8013 1.7037 7.2608 2.3657l1.0326-0.70996c-2.4442-0.64064-4.883-1.3364-7.1887-2.3869l-1.1047 0.7311z"/><path d="m-68.608-941.35c-1.1125-0.6333-2.181-0.90165-3.4402-1.0684-1.5474-0.0591-3.066 0.71444-3.9906 1.9667-0.38547 0.52204-0.52022 0.88412-0.78837 1.4611-0.0843 0.33102-0.29377 0.86931-0.1362 1.2369 0.4653 1.0871 2.3959 0.96636 3.2973 0.94291 1.0046-0.0675 1.9449-0.4485 2.9214-0.6472 0.38158-0.0777 0.71404-0.15933 1.0624 0.0652 0.12765 0.0822 0.20378 0.22504 0.30568 0.33756 0.25134 0.45076 0.33165 0.95992 0.44553 1.4558l1.1692-0.63002c-0.123-0.51588-0.21398-1.0442-0.47808-1.5128-0.114-0.1311-0.19969-0.29349-0.34179-0.39352-0.58272-0.41021-1.3582-0.0504-1.9508 0.1059-1.2785 0.33727-0.74208 0.21127-2.0975 0.46126-0.37548 0.015-0.75119 0.0633-1.1265 0.0445-0.57502-0.0286-1.7471-0.16633-2.0302-0.83687-0.144-0.3411 0.06945-0.87319 0.14985-1.1712 0.27044-0.56515 0.40386-0.91967 0.79905-1.4232 0.17768-0.22641 0.48884-0.35897 0.59349-0.62708 0.05565-0.14265-0.57277 0.20483-0.42087 0.18485 2.9958-0.39462-1.4526-0.1305 1.5488-0.26532 1.1984 0.15477 2.3415 0.41482 3.388 1.0506l1.1209-0.73746z"/><path d="m-65.696-940.35c-0.0192 0.99558 0.1912 1.9707 0.3854 2.9408l1.1603-0.62043c-0.19353-0.96648-0.40011-1.94-0.34437-2.9325l-1.2014 0.61208z"/><circle cx="-65.912" cy="-947.39" r=".011997"/><circle cx="-65.367" cy="-943.03" r=".011997"/><path d="m-65.584-942.99c-0.0045-0.35055-0.0045-0.70111-6e-3 -1.0517l-1.1888 0.60574c-0.0015 0.35268-0.0015 0.70538-6e-3 1.058l1.2014-0.61208z"/><path d="m-61.335-951.96c0.12795 3.4368 0.21009 6.8746 0.26044 10.314 0.0264 2.8077 0.01695 1.4552 0.0297 4.0574l1.0984-0.56107c-0.0393-2.5911-0.0195-1.2434-0.05895-4.0431-0.0477-3.4584-0.12795-6.9176-0.1344-10.376l-1.1954 0.60903z"/><path d="m-52.463-944.39c-0.5525-0.48779-1.2445-1.0995-2.0514-0.96221-0.16786 0.0286-0.3191 0.1191-0.47868 0.17868-0.52014 0.37883-1.1116 0.67546-1.5605 1.1365-0.23996 0.24646-0.57789 1.6451-0.62811 1.8776-0.2515 1.164-0.3259 2.3198-0.35606 3.5057 0.01815 0.31438 0.01695 0.63048 0.05445 0.94317 0.07605 0.63504 0.17422 0.94093 0.41206 1.5186 0.08115 0.19733 0.1804 0.38676 0.2707 0.58007 0.0702 0.15037 0.19962 0.28549 0.21086 0.45108 6e-3 0.0906-0.1104 0.14431-0.16556 0.21648 0.79815-0.94306 0.73778-0.52342-0.52238-0.73619-0.404-0.0681-0.80012-0.17667-1.2002-0.26503l-1.05 0.72744c0.18772 0.0443 1.9458 0.49429 2.2372 0.43572 0.61998-0.1245 1.1714-0.4769 1.7571-0.71537 0.033-0.10606 0.1158-0.20834 0.0987-0.31798-0.0258-0.16352-0.14655-0.29681-0.21872-0.44582-0.0912-0.18852-0.18975-0.37368-0.27082-0.56671-0.23556-0.56096-0.32982-0.8596-0.40648-1.4783-0.0381-0.30783-0.03915-0.61911-0.05865-0.92868 0.0351-1.5192 0.1341-3.076 0.6694-4.517 0.1023-0.27538 0.5186-0.53406 0.38206-0.79419-0.11205-0.21342-0.46399 0.1308-0.69598 0.19616 0.14805-0.0735 0.28458-0.17853 0.44466-0.2204 0.77262-0.20191 1.4642 0.40829 1.9816 0.88224l1.1449-0.70156z"/><path d="m-81.801-928.38c-0.3655 2.8937-1.0196 5.7457-1.6229 8.5973-0.55521 2.4838-0.14385 0.7708-0.64126 2.6327-0.0252 0.0945-0.15336 0.33196-0.0672 0.28569 0.51714-0.27752 1.0324-0.59307 1.4353-1.0198 0.26563-0.28132 0.33262-0.6989 0.51142-1.042 0.2589-0.49676 0.53427-0.98478 0.80142-1.4772 1.6771-2.9982 3.6618-5.8114 5.9846-8.3415 0.06705-0.062 1.1742-1.1531 1.4182-1.1463 0.22958 6e-3 -0.53884 0.2399-0.50634 0.46725 0.0297 0.20769 0.42494 0.0743 0.6002 0.18969 0.61544 0.40503 0.88104 1.0221 1.2519 1.6282 0.75851 1.5862 1.5365 3.324 1.2315 5.1346-0.20515 1.2182-0.55665 1.5762-1.1836 2.6284-0.37464 0.38522-0.71146 0.81113-1.1239 1.1556-0.43092 0.35997-0.90928 0.66199-1.3932 0.94683-0.1263 0.0743-0.28479 0.0713-0.42231 0.12165-0.8536 0.31326-1.6536 0.70957-2.5528 0.88435-0.3329 0.0647-0.67612 0.0542-1.0142 0.0812-1.1446-0.16257-0.60444-0.0212-1.6257-0.40374l-1.0842 0.72879c1.0495 0.40874 0.49434 0.25493 1.671 0.44137 0.34713-0.0225 0.6993-5e-3 1.0413-0.0676 0.4058-0.0752 0.79841-0.21199 1.1889-0.34543 1.5254-0.52136 2.4545-1.0091 3.9575-1.8964 0.48645-0.2872 0.95994-0.60361 1.3881-0.97207 0.4117-0.35432 0.74565-0.79013 1.1185-1.1852 0.6302-1.0903 0.97036-1.4367 1.1664-2.691 0.2869-1.8352-0.50037-3.5895-1.2559-5.2034-0.2423-0.41019-1.1539-2.156-1.9152-1.9788-1.2574 0.29262-2.2511 1.1077-3.1356 1.9771-2.2955 2.5473-4.2461 5.3762-5.9419 8.3554-0.2773 0.49855-0.56024 0.99404-0.83196 1.4956-0.19005 0.35083-0.7177 0.6978-0.55332 1.0614 0.13545 0.29992 0.67164-3e-3 0.98058-0.1161 0.07965-0.0293 0.0075-0.17035 0.02535-0.25343 0.18336-0.87243 0.45976-1.7242 0.58196-2.6104 0.60483-2.8786 1.2618-5.75 1.7285-8.6548l-1.2111 0.59212z"/><path d="m-73.481-917.58c2.9688 0.0466 5.8707-0.6023 8.6979-1.4438 1.664-0.52344 3.1777-1.3029 4.6434-2.2489 0.46761-0.30178 0.88564-0.72258 1.1919-1.1872 0.12105-0.18372 0.19903-0.39255 0.29854-0.58883 0.19134-0.67863 0.0429-1.4809-0.78788-1.629-0.60326-0.10755-0.95445 0.15073-1.4955 0.37986-0.65841 0.43386-1.3445 0.82831-1.9751 1.3016-0.93506 0.70185-2.1407 2.2755-2.6175 3.3515-0.1392 0.31447-0.2331 0.64724-0.34965 0.97084-0.29396 1.5125-0.4334 3.458 0.80271 4.6349 0.23134 0.22027 0.52476 0.36438 0.78716 0.54655 1.6169 0.72747 3.3677 0.85427 5.0987 0.50207 0.46762-0.0951 0.91994-0.25426 1.3799-0.38142l1.0016-0.77066c-0.45652 0.13169-0.90505 0.29526-1.3695 0.39537-1.6995 0.36621-3.4201 0.26004-5.0172-0.44358-0.25336-0.17112-0.53655-0.30486-0.76009-0.51343-1.2206-1.1389-1.0602-3.0485-0.7527-4.5152 0.4112-1.0927 0.70071-1.7152 1.44-2.6358 0.22836-0.28436 0.46302-0.56452 0.71553-0.8277 0.26554-0.27674 0.60862-0.48155 0.83665-0.78991 0.0477-0.0647-0.16033-0.0105-0.24052-0.0162 0.46148-0.22004 0.87032-0.51193 1.411-0.45679 0.78387 0.0799 0.8845 0.83973 0.69134 1.4378-0.1005 0.18672-0.18051 0.38614-0.3016 0.5602-0.95186 1.3678-1.9623 1.5087-3.644 2.1617-2.7893 0.84609-5.6645 1.5235-8.6015 1.4188l-1.0836 0.78723z"/><path d="m-53.034-924.21c-0.58702 2.242-0.68636 4.5811-0.68283 6.8876 0.0744 0.553-0.1014 2.323 0.34076 2.7782 0.1197 0.1233 0.34496 0.197 0.50061 0.12405 1.7721-0.83114 1.7522-1.0782 2.749-2.4069 1.0583-1.5181 1.9409-3.1463 2.846-4.7571l-1.1313 0.50542c-0.90308 1.6148-1.7862 3.2469-2.8733 4.749-0.30728 0.38633-0.7222 0.70757-0.92188 1.1591-0.05625 0.12721 0.52725 0.0676 0.41688-0.0169-0.1149-0.0882-0.32541 0.0987-0.43452 3e-3 -0.42576-0.37193-0.29979-2.2378-0.36126-2.7148-6e-3 -2.301 0.08985-4.6544 0.76989-6.8688l-1.2181 0.55776z"/><path d="m-47.923-917.53c1.3649 0.24142 2.8243 0.0852 4.1138-0.43278 0.32376-0.13005 0.62661-0.30704 0.93992-0.46058 0.64852-0.42055 1.3335-0.78956 1.9455-1.2616 0.84002-0.64785 1.8655-2.3217 1.7755-3.425-0.02115-0.25844-0.15-0.49647-0.2248-0.74471-0.18658-0.16941-0.3291-0.40677-0.55979-0.50833-0.642-0.28259-1.3934-0.10259-1.9771 0.20775-2.1123 1.1235-2.762 1.8533-4.1155 3.6293-0.63693 1.0462-2.0655 3.1751-1.5284 4.5018 0.07455 0.18417 0.22701 0.32617 0.3405 0.48927 0.83421 0.69989 1.6385 0.72124 2.6745 0.65721l1.0527-0.77702c-0.99233 0.0881-1.7671 0.0959-2.5878-0.55213-0.10485-0.1455-0.24699-0.27038-0.31448-0.43655-0.51489-1.2684 0.91032-3.3892 1.5218-4.3803 2.5208-3.2461-0.7884 0.91268 1.9482-2.1972 0.0321-0.0364-0.0495-0.1236-6e-3 -0.14535 0.56942-0.2886 1.23-0.54808 1.8773-0.30375 0.2143 0.0808 0.34971 0.29598 0.52458 0.44399 0.06855 0.2315 0.18962 0.45354 0.20583 0.69439 0.06285 0.92985-0.51718 1.8605-1.0717 2.5473-0.2236 0.27694-0.54526 0.47364-0.73431 0.77521-0.04635 0.074 0.17392-0.0135 0.26092-0.0201-0.30858 0.15807-0.60618 0.33971-0.92571 0.47424-1.2539 0.52806-2.6973 0.70872-4.0335 0.46074l-1.1019 0.76434z"/><path d="m-37.911-930.9c0.02925 3.4768-0.18934 6.9536-0.41511 10.422-0.15465 2.755-0.51995 5.4882-1.0401 8.1956l1.1161-0.54297c0.49244-2.7094 0.84098-5.4412 1.0005-8.1923 0.23472-3.4923 0.44962-6.9886 0.52788-10.488l-1.1894 0.60604z"/><path d="m-33.812-917.07c0.50868-0.66414 1.0655-1.3142 1.7647-1.7864 0.20549-0.1386 0.39803-0.34112 0.64404-0.3723 0.1821-0.0231-0.28614 0.23005-0.4292 0.34505 0.46978-0.12991 0.88191-0.29156 1.3814-0.24638 1.3557 0.12255 2.0375 1.3839 2.666 2.4132 0.63777 1.3163 1.0129 2.7895 0.34978 4.1799-0.33208 0.6963-0.57645 0.8229-1.126 1.3208 0.1233-0.11835 0.49772-0.2418 0.36986-0.35526-0.21662-0.19233-0.5924 0.0135-0.86489-0.0843-0.37498-0.13515-0.72136-0.35318-1.0341-0.60027-1.2069-0.95342-2.0311-2.3055-2.8446-3.5794-0.42082-0.85863-1.2838-1.9497-1.0168-3.0066 0.0591-0.23373 0.25581-0.40875 0.38373-0.61311l-1.1971 0.5342c-0.11535 0.22537-0.29853 0.42746-0.34596 0.67612-0.20763 1.0885 0.63981 2.1599 1.0896 3.0435 0.82746 1.2856 1.6641 2.6481 2.8576 3.6394 0.36072 0.29955 1.3332 0.97646 1.9452 0.79775 0.66872-0.19524 1.242-0.63138 1.863-0.94704 0.20481-0.19996 0.43686-0.37536 0.6145-0.59978 1.2031-1.5201 0.85078-3.4329 0.0651-5.0493-0.63921-1.0636-1.3351-2.3728-2.7165-2.5491-0.50484-0.0645-0.93396 0.0933-1.412 0.21361-0.35305 0.18185-1.8552 0.89982-2.4597 1.3276-0.69963 0.4952-1.2512 1.1621-1.7849 1.8237l1.2372-0.52569z"/><path d="m-23.275-921.92c-0.8687 4.3901-2.1645 8.6859-3.3321 13.004-0.64898 2.2837-1.2017 4.5942-1.8524 6.8774-0.0684 0.23994-0.46034 0.80553-0.22876 0.7127 1.5838-0.63449 1.4527-1.5393 1.8109-2.9417 1.1568-4.3759 2.4439-8.7574 4.3173-12.89 0.24585-0.54234 0.52654-1.0682 0.7898-1.6023 0.55948-0.91757 0.71302-1.2607 1.3696-2.0379 0.16148-0.1911 0.76533-0.46739 0.52486-0.5364-0.28014-0.0804-0.5523 0.24801-0.73306 0.47664-0.0582 0.0737 0.19398 0.0641 0.24153 0.14491 0.0801 0.13649 0.07606 0.30708 0.11415 0.46064 0.0975 1.5712-0.67122 2.9588-1.6802 4.1032-0.22173 0.30955-1.8793 1.2919-0.1251 0.21414l-1.0389 0.83296c0.86976-0.48964 1.6899-0.85002 2.3749-1.5595 1.0011-1.1986 1.7471-2.6172 1.6349-4.223-6e-3 -0.0214-0.1365-0.91634-0.48033-0.80438-1.6984 0.55317-2.5168 1.9918-3.3312 3.441-0.25354 0.53223-0.52366 1.0568-0.7606 1.5966-1.8269 4.1619-3.0807 8.5544-4.3317 12.913-0.0045 0.0175-1.4955 2.9365 0.48816 1.8471 0.20385-0.1119 0.10035-0.45422 0.15639-0.67992 0.56832-2.2876 1.176-4.5654 1.7823-6.843 1.1822-4.3585 2.491-8.6876 3.4887-13.093l-1.1989 0.58612z"/><path d="m-18.569-916.22c1.5472 0.0417 3.0789-0.0944 4.5945-0.39863 1.0421-0.23992 2.8778-0.718 3.3943-1.671 0.06285-0.11594 0.09135-0.24768 0.1371-0.37154 0.15626-1.302 0.11985-1.639-1.1661-2.1033-1.5523-0.39732-2.21 0.0441-3.5699 1.1425-0.41306 0.33363-0.78261 1.2056-1.0012 1.6433-0.62516 1.655-0.82449 3.691 0.3871 5.1587 0.23784 0.28821 0.55155 0.50428 0.82731 0.75637 1.8883 1.2218 3.4927 1.3724 5.6736 1.2359l1.036-0.76384c-2.1557 0.16648-3.7367 0.0456-5.6162-1.1493-0.26787-0.24222-0.57258-0.44913-0.80361-0.72673-1.1954-1.4365-0.9636-3.4352-0.32578-5.0429 0.15522-0.29441 0.28428-0.60416 0.4657-0.88319 0.16584-0.25519 0.52948-0.41074 0.57142-0.7122 0.024-0.17233-0.65404 0.23619-0.4953 0.16488 0.60606-0.27234 1.1232-0.27552 1.7549-0.082 1.2099 0.40309 1.2529 0.68858 1.0492 1.9208-0.05205 0.1116-0.08805 0.23219-0.15612 0.33488-0.19552 0.29523-1.008 0.79254 0.59445-0.19724 0.1371-0.0847-0.28749 0.1467-0.43785 0.20456-0.45567 0.17517-0.79642 0.23742-1.2782 0.35233-1.4973 0.31709-3.0136 0.47406-4.5462 0.39636l-1.089 0.79121z"/><path d="m-3.9453-920.42c-0.40646 1.8394-0.78014 3.6856-1.0986 5.5423-0.27528 1.6513-0.34482 3.3313-0.61803 4.9825-0.61101-0.11114 0.35644 0.0849 1.1497-0.96397 0.15783-0.2087 0.0399-0.52234 0.0807-0.78081 0.0573-0.36303 0.12855-0.7241 0.21353-1.0816 0.29962-1.2607 0.39034-1.4054 0.83236-2.6464 0.5063-1.1606 1.1019-2.304 1.949-3.258 0.99468-1.12 0.45905-0.36268 1.5158-1.2763 0.12098-0.10471-0.27406 0.16514-0.41108 0.24774 0.2154-0.0936 0.43079-0.1874 0.64617-0.2811l1.0305-0.81367c-0.22044 0.0909-0.44088 0.18187-0.66131 0.2728-0.87658 0.50984-1.7913 0.94512-2.5575 1.617-1.2326 1.0808-2.0224 2.5376-2.656 4.0262-0.44043 1.2434-0.84914 2.4693-1.0726 3.7735-0.04575 0.26676-0.33291 0.67014-0.0987 0.80588 1.1396 0.6609 1.1764 0.20377 1.2349-0.22918 0.1979-1.6525 0.3304-3.3133 0.57918-4.9595 0.31665-1.8658 0.69192-3.722 1.1534-5.5578l-1.2114 0.58035z"/></g></svg>
